<?xml version="1.0" standalone="no"?><!DOCTYPE svg PUBLIC "-//W3C//DTD SVG 1.1//EN" "http://www.w3.org/Graphics/SVG/1.1/DTD/svg11.dtd"><svg t="1538582385712" class="icon" style="" viewBox="0 0 1127 1024" version="1.1" xmlns="http://www.w3.org/2000/svg" p-id="4216" xmlns:xlink="http://www.w3.org/1999/xlink" width="70.4375" height="64"><defs><style type="text/css"></style></defs><path d="M902.11401501 976.32628963h-662.45776157C150.27703125 976.32628963 76.67061419 903.77139199 76.67061419 813.34065037V213.9741036c0-89.37922219 73.60641821-162.98563925 162.98563925-162.98564039h662.45776157c89.37922219 0 162.98563925 73.60641821 162.98564038 162.98564039v599.36654677c0 90.43074162-73.60641821 162.98563925-162.98564038 162.98563926z m-662.45776157-850.67988764c-49.42145195 0-89.37922219 39.95777024-89.37922219 89.37922218v599.36654564c0 49.42145195 39.95777024 89.37922219 89.37922219 89.37922218h662.45776157c49.42145195 0 89.37922219-39.95777024 89.37922218-89.37922218v-599.36654564c0-49.42145195-39.95777024-89.37922219-89.37922218-89.37922218h-662.45776157z" p-id="4217" fill="#ffffff"></path><path d="M498.33023715 276.01379896c0 46.26689138 36.80320853 83.07009991 83.07009992 83.07009991s83.07009991-36.80320853 83.07009991-83.07009991S627.66722845 192.94369791 581.40033707 192.94369791s-83.07009991 37.8547291-83.07009992 83.07010105z m0 0M740.17989518 695.57038079c0 29.44256683 15.77280398 56.78209365 41.00929081 71.50337821 25.23648569 14.72128341 56.78209365 14.72128341 83.07009991 0 25.23648569-14.72128341 41.00928967-42.06081024 41.00928967-71.50337821 0-46.26689138-36.80320853-83.07009991-83.07009991-83.07009991-44.16385024 1.05152057-82.01858048 37.8547291-82.01858048 83.07009991z m0 0M256.48057799 687.15821852c0 43.11233081 34.70016853 77.81249934 77.8124982 77.81249934 43.11233081 0 77.81249934-34.70016853 77.81249935-77.81249934 0-43.11233081-34.70016853-77.81249934-77.81249935-77.81249821-43.11233081 0-77.81249934 34.70016853-77.8124982 77.81249821z m0 0" p-id="4218" fill="#ffffff"></path><path d="M306.95355051 716.60078648L581.40033707 240.26210986l274.44678656 475.28715605-548.89357312 1.05152057zM581.40033707 387.47494627L434.18750066 642.99436828h294.42567168L581.40033707 387.47494627z" p-id="4219" fill="#ffffff"></path></svg>