<?xml version="1.0" standalone="no"?><!DOCTYPE svg PUBLIC "-//W3C//DTD SVG 1.1//EN" "http://www.w3.org/Graphics/SVG/1.1/DTD/svg11.dtd"><svg t="1538580823495" class="icon" style="" viewBox="0 0 1024 1024" version="1.1" xmlns="http://www.w3.org/2000/svg" p-id="3013" xmlns:xlink="http://www.w3.org/1999/xlink" width="64" height="64"><defs><style type="text/css"></style></defs><path d="M801.026 815.35a16.686 16.686 0 0 0-21.822-8.978l-145.864 60.844a132.36 132.36 0 0 1-92.452 3.56L198.76 758.048a91.58 91.58 0 0 0-65.612 3.112l-13.576 5.942a16.686 16.686 0 0 0 13.382 30.57l13.592-5.95a58.29 58.29 0 0 1 41.758-1.984l342.134 112.732a165.832 165.832 0 0 0 51.908 8.336 165.604 165.604 0 0 0 63.846-12.794l145.856-60.842a16.68 16.68 0 0 0 8.978-21.82z" fill="#ffffff" p-id="3014"></path><path d="M1017.722 657.148l-0.232-0.54c-15.016-34.822-52.836-53.644-89.098-45.818 4.594-14.88 3.842-30.74-2.27-45.27-6.892-16.384-19.76-29.082-36.274-35.77a22.592 22.592 0 0 0-0.574-0.22c-13.568-5.356-28.276-5.948-41.872-2.238V419.12a16.688 16.688 0 0 0-33.376 0v231.022l-146.702 51.332a74.974 74.974 0 0 1-49.272 0.002l-172.456-60.266v-67.242l165.144 56.472c33.336 11.43 70.442-4.674 84.954-36.66h20.882a16.688 16.688 0 0 0 16.688-16.688V383.52a16.688 16.688 0 0 0-16.688-16.688h-173.546a16.688 16.688 0 0 0-16.688 16.688v67.196l-80.744-30.972v-124.556l184.204-121.978 184.226 121.982v68.308a16.688 16.688 0 0 0 33.376 0v-46.222l45.808 30.33a16.674 16.674 0 0 0 23.126-4.7 16.686 16.686 0 0 0-4.702-23.126l-90.932-60.212V129.878a16.688 16.688 0 0 0-16.688-16.688h-100.124a16.688 16.688 0 0 0-16.688 16.688v41.3l-48.182-31.904a16.686 16.686 0 0 0-18.424 0l-272.61 180.514a16.688 16.688 0 0 0 18.424 27.828l45.81-30.332v89.666l-56.28-21.588a165.592 165.592 0 0 0-7.456-2.726c-59.2-20.34-126.69-11.058-180.528 24.82L7.436 514.386a16.684 16.684 0 0 0-4.634 23.14 16.686 16.686 0 0 0 23.14 4.634l160.524-106.936c45.24-30.148 101.752-38.012 151.2-21.024 2.416 0.828 4.312 1.518 6.144 2.242l301.94 115.822c8.966 3.422 16.008 10.184 19.826 19.04 3.94 9.134 3.928 19.146-0.046 28.212-7.326 16.794-26.64 25.294-43.978 19.348l-191.54-65.498a64.878 64.878 0 0 0-46.782 1.816c-18.47 7.966-32.004 23.662-37.134 43.064-8.626 32.588 9.568 66.86 41.434 78.024l219.516 76.712c22.964 8.028 48.28 8.028 71.292-0.002l251.678-88.064c22.446-7.862 47.418 3.07 56.886 25.024l0.096 0.224a45.164 45.164 0 0 1 0.212 34.902 45.254 45.254 0 0 1-24.638 24.818l-134.392 56.058a16.688 16.688 0 0 0 12.846 30.802l134.392-56.058c19.526-8.148 34.684-23.418 42.684-43 7.99-19.56 7.858-41.054-0.38-60.538zM720.578 146.564h66.748v90.91l-66.748-44.198V146.564z m-62.906 354.532l-97.958-37.576v-63.312h140.172v148.922a68.556 68.556 0 0 0-3.664-11.04c-7.418-17.202-21.12-30.346-38.55-36.994zM412.22 629.55l-13.674-4.776c-15.52-5.44-24.388-22.122-20.19-37.986 2.496-9.436 9.086-17.074 18.086-20.954a31.55 31.55 0 0 1 15.778-2.392v66.108z m483.254-25.698l-8.562 20.792-39.508 13.824V563.32h-0.002c8.786-5.492 19.844-6.63 29.644-2.734 0.156 0.062 0.322 0.126 0.5 0.192a32.738 32.738 0 0 1 17.816 17.688 32.874 32.874 0 0 1 0.112 25.386z" fill="#ffffff" p-id="3015"></path></svg>