<?xml version="1.0" standalone="no"?><!DOCTYPE svg PUBLIC "-//W3C//DTD SVG 1.1//EN" "http://www.w3.org/Graphics/SVG/1.1/DTD/svg11.dtd"><svg t="1538585429175" class="icon" style="" viewBox="0 0 1024 1024" version="1.1" xmlns="http://www.w3.org/2000/svg" p-id="12203" xmlns:xlink="http://www.w3.org/1999/xlink" width="64" height="64"><defs><style type="text/css"></style></defs><path d="M479.8592 18.496L95.8592 240.256a64 64 0 0 0 0 110.784L479.8592 573.12a64 64 0 0 0 64 0.064l384.128-221.888a64 64 0 0 0 0-110.848L543.8592 18.56a64 64 0 0 0-64 0z m0.064 628.992L118.3232 440.64 95.8592 453.632a64 64 0 0 0 0 110.848l384 222.144a64 64 0 0 0 64.128 0l385.728-222.848a64 64 0 0 0 0.896-110.336l-25.088-15.04-361.728 208.96a64 64 0 0 1-63.808 0.128z m-385.92 134.72L479.8592 1005.44a64 64 0 0 0 64 0l385.856-222.912a64 64 0 0 0 0.832-110.336l-25.088-15.04L511.8592 884.48 118.3232 656.832l-25.152 15.104a64 64 0 0 0 0.832 110.272z" p-id="12204" fill="#ffffff"></path></svg>