<?xml version="1.0" standalone="no"?><!DOCTYPE svg PUBLIC "-//W3C//DTD SVG 1.1//EN" "http://www.w3.org/Graphics/SVG/1.1/DTD/svg11.dtd"><svg t="1538582332853" class="icon" style="" viewBox="0 0 1024 1024" version="1.1" xmlns="http://www.w3.org/2000/svg" p-id="3801" xmlns:xlink="http://www.w3.org/1999/xlink" width="64" height="64"><defs><style type="text/css"></style></defs><path d="M900.069744 81.394872H866.461538a28.882051 28.882051 0 0 1 0-57.764103h105.025641A28.882051 28.882051 0 0 1 1000.369231 52.512821v105.025641a28.882051 28.882051 0 0 1-57.764103 0V120.989538l-280.444718 242.215385a28.882051 28.882051 0 0 1-34.395897 2.494359L352.754872 190.674051l-247.939282 123.98277a28.882051 28.882051 0 1 1-25.836308-51.672616l262.564103-131.282051a28.882051 28.882051 0 0 1 28.435692 1.470359l270.70359 172.242051L900.069744 81.394872z m-465.394872 234.627282l160.426666 106.942359a78.769231 78.769231 0 0 1 35.052308 65.562256v325.054359a78.769231 78.769231 0 0 1-78.769231 78.769231h-78.76923a78.769231 78.769231 0 0 1-78.769231-78.769231V337.92a26.25641 26.25641 0 0 1 40.828718-21.87159z m11.684102 497.558974a26.25641 26.25641 0 0 0 26.256411 26.25641h78.76923a26.25641 26.25641 0 0 0 26.256411-26.25641v-325.054359a26.25641 26.25641 0 0 0-11.684103-21.845333L446.358974 386.940718v426.666667zM132.411077 371.370667l156.777026-87.11877A26.25641 26.25641 0 0 1 328.205128 307.2v506.407385a78.769231 78.769231 0 0 1-78.769231 78.76923H170.666667a78.769231 78.769231 0 0 1-78.769231-78.76923V440.188718a78.769231 78.769231 0 0 1 40.513641-68.844308z m25.494974 45.896205a26.25641 26.25641 0 0 0-13.495795 22.948102v373.418667a26.25641 26.25641 0 0 0 26.256411 26.25641h78.76923a26.25641 26.25641 0 0 0 26.256411-26.25641V351.809641l-117.786257 65.430974z m564.329026-20.637539l166.17682-147.718564a26.25641 26.25641 0 0 1 43.690667 19.639795V811.585641a78.769231 78.769231 0 0 1-78.769231 78.769231h-78.76923a78.769231 78.769231 0 0 1-78.769231-78.769231V455.469949a78.769231 78.769231 0 0 1 26.440205-58.866872z m38.386872 43.165539a21.005128 21.005128 0 0 0-7.062975 15.701333v356.141949a21.005128 21.005128 0 0 0 21.005129 21.005128h78.76923a21.005128 21.005128 0 0 0 21.005129-21.005128V338.681436l-113.716513 101.087179zM65.641026 1000.369231a28.882051 28.882051 0 0 1 0-57.764103h892.717948a28.882051 28.882051 0 0 1 0 57.764103H65.641026z" p-id="3802" fill="#ffffff"></path></svg>