<?xml version="1.0" standalone="no"?><!DOCTYPE svg PUBLIC "-//W3C//DTD SVG 1.1//EN" "http://www.w3.org/Graphics/SVG/1.1/DTD/svg11.dtd"><svg t="1538584214831" class="icon" style="" viewBox="0 0 1024 1024" version="1.1" xmlns="http://www.w3.org/2000/svg" p-id="8740" xmlns:xlink="http://www.w3.org/1999/xlink" width="64" height="64"><defs><style type="text/css"></style></defs><path d="M483.555556 622.933333a142.279111 142.279111 0 0 1 28.444444-281.6 142.222222 142.222222 0 0 1 28.444444 281.6V682.666667h28.444445a28.444444 28.444444 0 0 1 0 56.888889h-28.444445v28.444444h28.444445a28.444444 28.444444 0 0 1 0 56.888889h-56.888889a28.444444 28.444444 0 0 1-28.444444-28.444445v-173.511111zM796.444444 540.444444a28.444444 28.444444 0 0 1 56.888889 0v341.333334a56.888889 56.888889 0 0 1-56.888889 56.888889H227.555556a56.888889 56.888889 0 0 1-56.888889-56.888889V540.444444a28.444444 28.444444 0 0 1 56.888889 0v341.333334h568.888888V540.444444zM104.732444 472.945778a28.444444 28.444444 0 0 1-38.798222-41.585778L434.346667 87.466667a113.777778 113.777778 0 0 1 155.249777 0l368.440889 343.893333a28.444444 28.444444 0 0 1-38.798222 41.585778L550.826667 129.052444a56.888889 56.888889 0 0 0-77.653334 0L104.732444 472.974222zM512 568.888889a85.333333 85.333333 0 1 0 0-170.666667 85.333333 85.333333 0 0 0 0 170.666667z" p-id="8741" fill="#ffffff"></path></svg>