<?xml version="1.0" standalone="no"?><!DOCTYPE svg PUBLIC "-//W3C//DTD SVG 1.1//EN" "http://www.w3.org/Graphics/SVG/1.1/DTD/svg11.dtd"><svg t="1538585661906" class="icon" style="" viewBox="0 0 1024 1024" version="1.1" xmlns="http://www.w3.org/2000/svg" p-id="17172" xmlns:xlink="http://www.w3.org/1999/xlink" width="64" height="64"><defs><style type="text/css"></style></defs><path d="M667.538449 273.224802c0-16.20303-13.137205-29.341259-29.341259-29.341259L224.711901 243.883543c-16.20303 0-29.341259 13.137205-29.341259 29.341259s13.137205 29.341259 29.341259 29.341259l413.485289 0C654.401244 302.56606 667.538449 289.428855 667.538449 273.224802zM941.021124 762.822582l-121.540124-78.745459c7.075139-20.018939 11.126408-41.453111 11.126408-63.86454 0-106.09741-86.311785-192.409195-192.409195-192.409195-106.092293 0-192.404078 86.311785-192.404078 192.409195 0 106.092293 86.311785 192.404078 192.404078 192.404078 62.641689 0 118.214379-30.223349 153.370063-76.704986l117.544113 76.156494c4.933359 3.194762 10.458189 4.723581 15.925714 4.723581 9.618055 0 19.035542-4.723581 24.651446-13.389962C958.499194 789.800004 954.621886 771.633249 941.021124 762.822582zM638.198214 753.936191c-73.733305 0-133.723607-59.990303-133.723607-133.723607 0-73.738421 59.990303-133.728724 133.723607-133.728724 73.738421 0 133.728724 59.990303 133.728724 133.728724C771.925914 693.945889 711.936635 753.936191 638.198214 753.936191zM195.370643 569.071833c0 16.20303 13.137205 29.341259 29.341259 29.341259l183.018314 0c1.918699-20.442588 6.488785-40.120766 13.392008-58.681494L224.711901 539.731598C208.508871 539.730575 195.370643 552.868803 195.370643 569.071833zM600.469937 391.805524l-375.758036 0c-16.20303 0-29.341259 13.137205-29.341259 29.341259 0 16.20303 13.137205 29.341259 29.341259 29.341259l256.231779 0C513.515516 420.284135 554.751686 399.332964 600.469937 391.805524zM734.6438 846.680479c0 29.679973-24.150026 53.829999-53.829999 53.829999L182.099385 900.510478c-29.679973 0-53.828976-24.150026-53.828976-53.829999L128.270409 177.318498c0-29.679973 24.150026-53.828976 53.828976-53.828976l498.714416 0c29.679973 0 53.829999 24.150026 53.829999 53.828976l0 232.489028c21.528316 9.907651 41.307801 22.978341 58.681494 38.688137L793.325293 177.318498c0-62.037938-50.472532-112.51047-112.51047-112.51047L182.099385 64.808028c-62.037938 0-112.51047 50.472532-112.51047 112.51047l0 669.361981c0 62.038962 50.472532 112.51047 112.51047 112.51047l498.714416 0c62.038962 0 112.51047-50.472532 112.51047-112.51047l0-54.755068c-17.372669 15.708773-37.153178 28.77844-58.681494 38.687114L734.642776 846.680479z" p-id="17173" fill="#ffffff"></path></svg>