<?xml version="1.0" standalone="no"?><!DOCTYPE svg PUBLIC "-//W3C//DTD SVG 1.1//EN" "http://www.w3.org/Graphics/SVG/1.1/DTD/svg11.dtd"><svg t="1538580439025" class="icon" style="" viewBox="0 0 1228 1024" version="1.1" xmlns="http://www.w3.org/2000/svg" p-id="2106" xmlns:xlink="http://www.w3.org/1999/xlink" width="76.75" height="64"><defs><style type="text/css"></style></defs><path d="M745.55301 675.362133c10.922667 0 21.822578 8.100978 21.822578 18.909867 0 8.123733-8.192 16.224711-21.822578 16.224711H644.677632v62.190933c0 8.100978-8.169244 16.224711-21.799822 16.224712-10.922667 0-21.822578-8.123733-21.822578-16.224712v-62.190933H500.179854a18.568533 18.568533 0 0 1-19.114666-18.932622c0-8.100978 8.192-16.201956 19.114666-16.201956h103.606045v-54.089955h-100.898134a18.568533 18.568533 0 0 1-19.069155-18.909867c0-8.123733 8.192-16.224711 19.069155-16.224711h84.536889l-87.2448-140.583822c-5.461333-8.123733-2.730667-18.932622 8.169245-21.617778 8.192-2.730667 21.822578 0 27.261155 8.100978l89.998222 140.583822 87.2448-143.291733c5.461333-8.123733 19.091911-10.831644 27.261156-5.415823 10.922667 2.707911 13.653333 13.5168 8.192 21.617778l-87.267556 143.314489h84.536889c10.922667 0 21.822578 8.100978 21.822578 18.909867 0 10.831644-8.192 16.224711-21.822578 16.224711H644.677632v54.0672h100.898133v-2.685156z m160.9728-512.591644c13.630578 0 27.261156-9.284267 27.261155-29.764267V98.304c0-16.770844 16.611556-32.836267 44.828445-32.836267s38.138311 23.825067 38.138311 40.618667v129.661156c0 20.48 18.705067 28.808533 33.700978 28.808533 14.995911 0 29.263644-8.305778 29.263644-28.808533V106.0864c0-57.685333-42.3936-104.630044-101.102933-104.630044-58.709333 0-106.564267 46.944711-106.564267 104.630044v22.641778c0 20.48 20.844089 34.042311 34.474667 34.042311z m307.2 296.163555L634.983765 8.032711a38.274844 38.274844 0 0 0-46.876444 0L9.342521 458.934044c-16.338489 12.743111-7.532089 34.247111-1.501867 40.118045s22.209422 13.949156 38.547911 1.2288l88.814934-68.630756 7.122489 481.120711C142.348743 974.392889 193.025365 1024 255.557632 1024h711.338667c62.509511 0 113.846044-49.584356 113.846044-111.047111V427.030756l100.465778 78.893511c6.940444 5.393067 29.422933 13.084444 40.891733 0 11.4688-13.1072 7.964444-34.247111-8.374044-46.967467zM1026.060743 925.582222c0 21.7088-30.902044 52.224-52.997689 52.224H257.51461c-22.072889 0-60.734578-30.492444-60.734578-52.224V389.802667l414.993067-323.128889L1026.060743 389.256533v536.348445z" fill="#ffffff" p-id="2107"></path></svg>