<?xml version="1.0" standalone="no"?><!DOCTYPE svg PUBLIC "-//W3C//DTD SVG 1.1//EN" "http://www.w3.org/Graphics/SVG/1.1/DTD/svg11.dtd"><svg t="1538585479687" class="icon" style="" viewBox="0 0 1024 1024" version="1.1" xmlns="http://www.w3.org/2000/svg" p-id="13721" xmlns:xlink="http://www.w3.org/1999/xlink" width="64" height="64"><defs><style type="text/css"></style></defs><path d="M512 20.48C286.72 20.48 102.4 94.208 102.4 198.656v626.688c0 102.4 184.32 178.176 409.6 178.176s409.6-73.728 409.6-178.176V198.656C921.6 94.208 737.28 20.48 512 20.48z m0 40.96c204.8 0 368.64 65.536 368.64 137.216 0 69.632-163.84 137.216-368.64 137.216S143.36 270.336 143.36 198.656 307.2 61.44 512 61.44z m368.64 763.904c0 69.632-163.84 137.216-368.64 137.216S143.36 897.024 143.36 825.344v-131.072c65.536 59.392 206.848 98.304 368.64 98.304s303.104-38.912 368.64-98.304v131.072zM512 753.664c-204.8 0-368.64-65.536-368.64-137.216v-131.072C208.896 544.768 350.208 583.68 512 583.68s303.104-38.912 368.64-98.304v131.072c0 69.632-163.84 137.216-368.64 137.216z m0-208.896c-204.8 0-368.64-65.536-368.64-137.216V276.48c65.536 59.392 206.848 98.304 368.64 98.304s303.104-38.912 368.64-98.304v131.072c0 69.632-163.84 137.216-368.64 137.216z m260.096-139.264a24.576 24.576 0 0 0 49.152 0 24.576 24.576 0 0 0-49.152 0z m0 206.848a24.576 24.576 0 0 0 49.152 0 24.576 24.576 0 0 0-49.152 0z m0 208.896a24.576 24.576 0 0 0 49.152 0 24.576 24.576 0 0 0-49.152 0z" fill="#ffffff" p-id="13722"></path></svg>